{
  "version": "1.1.6",
  "modules": [
    {
      "id": 1,
      "plugin": "Core",
      "version": "1.1.6",
      "model": "AudioInterface",
      "params": [],
      "leftModuleId": 2,
      "data": {
        "audio": {
          "driver": 5,
          "deviceName": "Apple Inc.: MacBook Pro Speakers",
          "offset": 0,
          "maxChannels": 8,
          "sampleRate": 44100,
          "blockSize": 256
        }
      },
      "pos": [
        74,
        0
      ]
    },
    {
      "id": 2,
      "plugin": "Fundamental",
      "version": "1.4.0",
      "model": "VCMixer",
      "params": [
        {
          "id": 0,
          "value": 1.29099977
        },
        {
          "id": 1,
          "value": 0.983029664
        },
        {
          "id": 2,
          "value": 1.0
        },
        {
          "id": 3,
          "value": 1.0
        },
        {
          "id": 4,
          "value": 1.0
        }
      ],
      "rightModuleId": 1,
      "pos": [
        64,
        0
      ]
    },
    {
      "id": 3,
      "plugin": "Fundamental",
      "version": "1.4.0",
      "model": "VCO",
      "params": [
        {
          "id": 0,
          "value": 1.0
        },
        {
          "id": 1,
          "value": 1.0
        },
        {
          "id": 2,
          "value": -22.8960056
        },
        {
          "id": 3,
          "value": 0.0
        },
        {
          "id": 4,
          "value": 0.832000077
        },
        {
          "id": 5,
          "value": 0.5
        },
        {
          "id": 6,
          "value": 0.0
        }
      ],
      "leftModuleId": 33,
      "rightModuleId": 4,
      "pos": [
        35,
        0
      ]
    },
    {
      "id": 4,
      "plugin": "Fundamental",
      "version": "1.4.0",
      "model": "VCF",
      "params": [
        {
          "id": 0,
          "value": 0.3719998
        },
        {
          "id": 1,
          "value": 0.5
        },
        {
          "id": 2,
          "value": 0.506999969
        },
        {
          "id": 3,
          "value": 0.508000255
        },
        {
          "id": 4,
          "value": 0.477000028
        }
      ],
      "leftModuleId": 3,
      "rightModuleId": 6,
      "pos": [
        45,
        0
      ]
    },
    {
      "id": 6,
      "plugin": "Fundamental",
      "version": "1.4.0",
      "model": "ADSR",
      "params": [
        {
          "id": 0,
          "value": 0.5
        },
        {
          "id": 1,
          "value": 1.0
        },
        {
          "id": 2,
          "value": 1.0
        },
        {
          "id": 3,
          "value": 1.0
        }
      ],
      "leftModuleId": 4,
      "pos": [
        53,
        0
      ]
    },
    {
      "id": 8,
      "plugin": "Core",
      "version": "1.1.6",
      "model": "Notes",
      "params": [],
      "text": "Demo patch instructions:\n\n1. Choose an audio driver and device in the AUDIO-8 module.\n\n2. Use the QWERTY and ZXCVB rows of your keyboard to generate MIDI notes, which are converted to 1V/oct and GATE signals.\n\n3. Drag knobs up/down. Hold Ctrl (Cmd on Mac) while dragging to fine-tune. Right-click knobs to edit, or double-click to initialize.\n\n4. Drag ports to create and move cables. Stack multiple cables on outputs by holding Ctrl (Cmd on Mac) and dragging from an output.\n\n5. Right-click on an empty rack space to add new modules.",
      "pos": [
        101,
        0
      ]
    },
    {
      "id": 32,
      "plugin": "Fundamental",
      "version": "1.4.0",
      "model": "SEQ3",
      "params": [
        {
          "id": 0,
          "value": 2.44400215
        },
        {
          "id": 1,
          "value": 0.0
        },
        {
          "id": 2,
          "value": 0.0
        },
        {
          "id": 3,
          "value": 8.0
        },
        {
          "id": 4,
          "value": 0.0
        },
        {
          "id": 5,
          "value": 0.660000682
        },
        {
          "id": 6,
          "value": 1.41000021
        },
        {
          "id": 7,
          "value": 1.02000117
        },
        {
          "id": 8,
          "value": 0.0
        },
        {
          "id": 9,
          "value": 0.900001526
        },
        {
          "id": 10,
          "value": 1.52999914
        },
        {
          "id": 11,
          "value": 1.02000129
        },
        {
          "id": 12,
          "value": 0.405000031
        },
        {
          "id": 13,
          "value": 1.18499947
        },
        {
          "id": 14,
          "value": 0.974999785
        },
        {
          "id": 15,
          "value": 0.764999509
        },
        {
          "id": 16,
          "value": 1.67999995
        },
        {
          "id": 17,
          "value": 2.02500033
        },
        {
          "id": 18,
          "value": 0.855000019
        },
        {
          "id": 19,
          "value": 1.48500025
        },
        {
          "id": 20,
          "value": 0.0
        },
        {
          "id": 21,
          "value": 0.0
        },
        {
          "id": 22,
          "value": 0.0
        },
        {
          "id": 23,
          "value": 0.0
        },
        {
          "id": 24,
          "value": 0.0
        },
        {
          "id": 25,
          "value": 0.0
        },
        {
          "id": 26,
          "value": 0.0
        },
        {
          "id": 27,
          "value": 0.0
        },
        {
          "id": 28,
          "value": 0.0
        },
        {
          "id": 29,
          "value": 0.0
        },
        {
          "id": 30,
          "value": 0.0
        },
        {
          "id": 31,
          "value": 0.0
        },
        {
          "id": 32,
          "value": 0.0
        },
        {
          "id": 33,
          "value": 0.0
        },
        {
          "id": 34,
          "value": 0.0
        },
        {
          "id": 35,
          "value": 0.0
        }
      ],
      "data": {
        "running": false,
        "gates": [
          1,
          1,
          1,
          1,
          1,
          1,
          1,
          1
        ]
      },
      "pos": [
        6,
        0
      ]
    },
    {
      "id": 33,
      "plugin": "JW-Modules",
      "version": "1.0.24",
      "model": "Quantizer",
      "params": [
        {
          "id": 0,
          "value": 11.0
        },
        {
          "id": 1,
          "value": 11.0
        },
        {
          "id": 2,
          "value": 0.0
        }
      ],
      "rightModuleId": 3,
      "data": {},
      "pos": [
        31,
        0
      ]
    },
    {
      "id": 34,
      "plugin": "JW-Modules",
      "version": "1.0.24",
      "model": "Quantizer",
      "params": [
        {
          "id": 0,
          "value": 5.0
        },
        {
          "id": 1,
          "value": 4.0
        },
        {
          "id": 2,
          "value": 0.0
        }
      ],
      "rightModuleId": 35,
      "data": {},
      "pos": [
        31,
        1
      ]
    },
    {
      "id": 35,
      "plugin": "Fundamental",
      "version": "1.4.0",
      "model": "VCO",
      "params": [
        {
          "id": 0,
          "value": 1.0
        },
        {
          "id": 1,
          "value": 1.0
        },
        {
          "id": 2,
          "value": -4.21200275
        },
        {
          "id": 3,
          "value": 0.0
        },
        {
          "id": 4,
          "value": 0.867000222
        },
        {
          "id": 5,
          "value": 0.5
        },
        {
          "id": 6,
          "value": 0.557999969
        }
      ],
      "leftModuleId": 34,
      "rightModuleId": 36,
      "pos": [
        35,
        1
      ]
    },
    {
      "id": 36,
      "plugin": "Fundamental",
      "version": "1.4.0",
      "model": "VCF",
      "params": [
        {
          "id": 0,
          "value": 0.238500103
        },
        {
          "id": 1,
          "value": 0.690499961
        },
        {
          "id": 2,
          "value": 0.234000027
        },
        {
          "id": 3,
          "value": 0.744000018
        },
        {
          "id": 4,
          "value": 0.490500063
        }
      ],
      "leftModuleId": 35,
      "rightModuleId": 37,
      "pos": [
        45,
        1
      ]
    },
    {
      "id": 37,
      "plugin": "Fundamental",
      "version": "1.4.0",
      "model": "ADSR",
      "params": [
        {
          "id": 0,
          "value": 0.433499783
        },
        {
          "id": 1,
          "value": 1.0
        },
        {
          "id": 2,
          "value": 1.0
        },
        {
          "id": 3,
          "value": 1.0
        }
      ],
      "leftModuleId": 36,
      "pos": [
        53,
        1
      ]
    },
    {
      "id": 38,
      "plugin": "Fundamental",
      "version": "1.4.0",
      "model": "SequentialSwitch1",
      "params": [
        {
          "id": 0,
          "value": 2.0
        }
      ],
      "leftModuleId": 39,
      "pos": [
        19,
        1
      ]
    },
    {
      "id": 39,
      "plugin": "AudibleInstruments",
      "version": "1.5.0",
      "model": "Branches",
      "params": [
        {
          "id": 0,
          "value": 0.5
        },
        {
          "id": 1,
          "value": 0.309499979
        },
        {
          "id": 2,
          "value": 0.0
        },
        {
          "id": 3,
          "value": 0.0
        }
      ],
      "rightModuleId": 38,
      "data": {
        "modes": [
          false,
          false
        ]
      },
      "pos": [
        13,
        1
      ]
    },
    {
      "id": 42,
      "plugin": "Bogaudio",
      "version": "1.1.37",
      "model": "Bogaudio-AddrSeq",
      "params": [
        {
          "id": 0,
          "value": 8.0
        },
        {
          "id": 1,
          "value": 1.0
        },
        {
          "id": 2,
          "value": 0.0
        },
        {
          "id": 3,
          "value": -0.308999985
        },
        {
          "id": 4,
          "value": 0.0
        },
        {
          "id": 5,
          "value": 0.396000028
        },
        {
          "id": 6,
          "value": 0.3510001
        },
        {
          "id": 7,
          "value": -0.18599999
        },
        {
          "id": 8,
          "value": 0.0
        },
        {
          "id": 9,
          "value": 0.0
        },
        {
          "id": 10,
          "value": 0.0
        }
      ],
      "leftModuleId": 43,
      "data": {
        "poly_input": 0,
        "select_on_clock": false,
        "triggered_select": false,
        "reverse_on_negative_clock": false,
        "range_offset": 0.0,
        "range_scale": 10.0
      },
      "pos": [
        5,
        1
      ]
    },
    {
      "id": 43,
      "plugin": "Bogaudio",
      "version": "1.1.37",
      "model": "Bogaudio-RGate",
      "params": [
        {
          "id": 0,
          "value": 0.5
        },
        {
          "id": 1,
          "value": 0.336999983
        },
        {
          "id": 2,
          "value": 0.0
        }
      ],
      "rightModuleId": 42,
      "data": {
        "range_offset": 1.0,
        "range_scale": 5.0,
        "reset_mode": 0,
        "initial_clock_seconds": 0.5,
        "poly_input": 4
      },
      "pos": [
        0,
        1
      ]
    },
    {
      "id": 44,
      "plugin": "VCV-Recorder",
      "version": "1.1.0",
      "model": "Recorder",
      "params": [
        {
          "id": 0,
          "value": 0.495999902
        },
        {
          "id": 1,
          "value": 0.0
        }
      ],
      "data": {
        "format": "wav",
        "path": "/Users/brennaj/Documents/Rack/Second Sound Assignment.wav",
        "incrementPath": true,
        "sampleRate": 44100,
        "depth": 16,
        "bitRate": 256000,
        "videoBitRate": 2048000
      },
      "pos": [
        72,
        1
      ]
    }
  ],
  "cables": [
    {
      "id": 174,
      "outputModuleId": 32,
      "outputId": 1,
      "inputModuleId": 33,
      "inputId": 2,
      "color": "#c91847"
    },
    {
      "id": 175,
      "outputModuleId": 33,
      "outputId": 0,
      "inputModuleId": 3,
      "inputId": 0,
      "color": "#0986ad"
    },
    {
      "id": 176,
      "outputModuleId": 32,
      "outputId": 2,
      "inputModuleId": 34,
      "inputId": 2,
      "color": "#c9b70e"
    },
    {
      "id": 177,
      "outputModuleId": 34,
      "outputId": 0,
      "inputModuleId": 35,
      "inputId": 0,
      "color": "#0c8e15"
    },
    {
      "id": 178,
      "outputModuleId": 35,
      "outputId": 3,
      "inputModuleId": 36,
      "inputId": 3,
      "color": "#c91847"
    },
    {
      "id": 179,
      "outputModuleId": 3,
      "outputId": 3,
      "inputModuleId": 4,
      "inputId": 3,
      "color": "#0986ad"
    },
    {
      "id": 182,
      "outputModuleId": 4,
      "outputId": 0,
      "inputModuleId": 2,
      "inputId": 1,
      "color": "#0c8e15"
    },
    {
      "id": 183,
      "outputModuleId": 6,
      "outputId": 0,
      "inputModuleId": 2,
      "inputId": 5,
      "color": "#c91847"
    },
    {
      "id": 186,
      "outputModuleId": 37,
      "outputId": 0,
      "inputModuleId": 2,
      "inputId": 6,
      "color": "#0c8e15"
    },
    {
      "id": 187,
      "outputModuleId": 36,
      "outputId": 0,
      "inputModuleId": 2,
      "inputId": 2,
      "color": "#c91847"
    },
    {
      "id": 188,
      "outputModuleId": 37,
      "outputId": 0,
      "inputModuleId": 36,
      "inputId": 0,
      "color": "#0986ad"
    },
    {
      "id": 191,
      "outputModuleId": 2,
      "outputId": 0,
      "inputModuleId": 1,
      "inputId": 1,
      "color": "#c91847"
    },
    {
      "id": 192,
      "outputModuleId": 2,
      "outputId": 0,
      "inputModuleId": 1,
      "inputId": 0,
      "color": "#0986ad"
    },
    {
      "id": 193,
      "outputModuleId": 6,
      "outputId": 0,
      "inputModuleId": 4,
      "inputId": 0,
      "color": "#c9b70e"
    },
    {
      "id": 198,
      "outputModuleId": 38,
      "outputId": 0,
      "inputModuleId": 6,
      "inputId": 4,
      "color": "#0c8e15"
    },
    {
      "id": 199,
      "outputModuleId": 38,
      "outputId": 1,
      "inputModuleId": 37,
      "inputId": 4,
      "color": "#c91847"
    },
    {
      "id": 203,
      "outputModuleId": 39,
      "outputId": 1,
      "inputModuleId": 38,
      "inputId": 2,
      "color": "#c91847"
    },
    {
      "id": 202,
      "outputModuleId": 39,
      "outputId": 0,
      "inputModuleId": 38,
      "inputId": 0,
      "color": "#0c8e15"
    },
    {
      "id": 197,
      "outputModuleId": 32,
      "outputId": 0,
      "inputModuleId": 39,
      "inputId": 1,
      "color": "#c9b70e"
    },
    {
      "id": 208,
      "outputModuleId": 32,
      "outputId": 0,
      "inputModuleId": 39,
      "inputId": 0,
      "color": "#0986ad"
    },
    {
      "id": 209,
      "outputModuleId": 32,
      "outputId": 0,
      "inputModuleId": 43,
      "inputId": 4,
      "color": "#c9b70e"
    },
    {
      "id": 210,
      "outputModuleId": 43,
      "outputId": 0,
      "inputModuleId": 42,
      "inputId": 0,
      "color": "#0c8e15"
    },
    {
      "id": 211,
      "outputModuleId": 42,
      "outputId": 0,
      "inputModuleId": 34,
      "inputId": 3,
      "color": "#c9b70e"
    },
    {
      "id": 212,
      "outputModuleId": 2,
      "outputId": 0,
      "inputModuleId": 44,
      "inputId": 2,
      "color": "#0c8e15"
    }
  ]
}